<svg xmlns="http://www.w3.org/2000/svg" xmlns:xlink="http://www.w3.org/1999/xlink" width="1000" zoomAndPan="magnify" viewBox="0 0 750 299.999988" height="400" preserveAspectRatio="xMidYMid meet" version="1.0"><defs><g/><clipPath id="246f1a5b21"><path d="M 46 111.453125 L 223.902344 111.453125 L 223.902344 230.703125 L 46 230.703125 Z M 46 111.453125 " clip-rule="nonzero"/></clipPath></defs><g fill="#ffffff" fill-opacity="1"><g transform="translate(229.335041, 203.283871)"><g><path d="M 37.546875 0.875 C 32.910156 0.875 28.578125 0.00390625 24.546875 -1.734375 C 20.515625 -3.484375 16.957031 -5.898438 13.875 -8.984375 C 10.789062 -12.066406 8.378906 -15.617188 6.640625 -19.640625 C 4.898438 -23.671875 4.03125 -28.007812 4.03125 -32.65625 C 4.03125 -37.300781 4.898438 -41.632812 6.640625 -45.65625 C 8.378906 -49.6875 10.789062 -53.242188 13.875 -56.328125 C 16.957031 -59.410156 20.515625 -61.820312 24.546875 -63.5625 C 28.578125 -65.300781 32.910156 -66.171875 37.546875 -66.171875 C 44.003906 -66.171875 49.878906 -64.519531 55.171875 -61.21875 C 60.472656 -57.925781 64.503906 -53.59375 67.265625 -48.21875 L 54.859375 -41.796875 C 53.265625 -44.921875 50.941406 -47.425781 47.890625 -49.3125 C 44.847656 -51.195312 41.398438 -52.140625 37.546875 -52.140625 C 33.921875 -52.140625 30.640625 -51.285156 27.703125 -49.578125 C 24.765625 -47.867188 22.441406 -45.546875 20.734375 -42.609375 C 19.023438 -39.671875 18.171875 -36.351562 18.171875 -32.65625 C 18.171875 -28.957031 19.023438 -25.632812 20.734375 -22.6875 C 22.441406 -19.75 24.765625 -17.425781 27.703125 -15.71875 C 30.640625 -14.019531 33.921875 -13.171875 37.546875 -13.171875 C 41.398438 -13.171875 44.847656 -14.113281 47.890625 -16 C 50.941406 -17.882812 53.265625 -20.390625 54.859375 -23.515625 L 67.265625 -17.09375 C 64.503906 -11.789062 60.472656 -7.46875 55.171875 -4.125 C 49.878906 -0.789062 44.003906 0.875 37.546875 0.875 Z M 37.546875 0.875 "/></g></g></g><g fill="#ffffff" fill-opacity="1"><g transform="translate(303.258214, 203.283871)"><g><path d="M 20.796875 -12.734375 L 42.453125 -12.734375 L 42.453125 0 L 6.421875 0 L 6.421875 -65.3125 L 20.796875 -65.3125 Z M 20.796875 -12.734375 "/></g></g></g><g fill="#ffffff" fill-opacity="1"><g transform="translate(349.754217, 203.283871)"><g><path d="M 46.265625 -52.6875 L 21.328125 -52.6875 L 21.328125 -38.96875 L 42.671875 -38.96875 L 42.671875 -26.34375 L 21.328125 -26.34375 L 21.328125 -12.625 L 46.265625 -12.625 L 46.265625 0 L 6.96875 0 L 6.96875 -65.3125 L 46.265625 -65.3125 Z M 46.265625 -52.6875 "/></g></g></g><g fill="#ffffff" fill-opacity="1"><g transform="translate(404.304227, 203.283871)"><g><path d="M 46.375 0 L 42.34375 -12.296875 L 17.953125 -12.296875 L 13.9375 0 L -1.421875 0 L 22.09375 -65.3125 L 38.203125 -65.3125 L 61.71875 0 Z M 21.765625 -24.265625 L 38.53125 -24.265625 L 30.15625 -50.171875 Z M 21.765625 -24.265625 "/></g></g></g><g fill="#ffffff" fill-opacity="1"><g transform="translate(468.431992, 203.283871)"><g><path d="M 53.328125 -65.3125 L 67.59375 -65.3125 L 67.59375 0 L 52.796875 0 L 20.796875 -43.328125 L 20.796875 0 L 6.421875 0 L 6.421875 -65.3125 L 21.21875 -65.3125 L 53.328125 -22.09375 Z M 53.328125 -65.3125 "/></g></g></g><g fill="#ffffff" fill-opacity="1"><g transform="translate(546.382158, 203.283871)"><g><path d="M 46.703125 -65.3125 L 46.703125 -52.578125 L 30.265625 -52.578125 L 30.265625 0 L 16 0 L 16 -52.578125 L -0.546875 -52.578125 L -0.546875 -65.3125 Z M 46.703125 -65.3125 "/></g></g></g><g fill="#ffffff" fill-opacity="1"><g transform="translate(596.360975, 203.283871)"><g><path d="M 46.265625 -52.6875 L 21.328125 -52.6875 L 21.328125 -38.96875 L 42.671875 -38.96875 L 42.671875 -26.34375 L 21.328125 -26.34375 L 21.328125 -12.625 L 46.265625 -12.625 L 46.265625 0 L 6.96875 0 L 6.96875 -65.3125 L 46.265625 -65.3125 Z M 46.265625 -52.6875 "/></g></g></g><g fill="#ffffff" fill-opacity="1"><g transform="translate(650.910996, 203.283871)"><g><path d="M 37.546875 0.875 C 32.910156 0.875 28.578125 0.00390625 24.546875 -1.734375 C 20.515625 -3.484375 16.957031 -5.898438 13.875 -8.984375 C 10.789062 -12.066406 8.378906 -15.617188 6.640625 -19.640625 C 4.898438 -23.671875 4.03125 -28.007812 4.03125 -32.65625 C 4.03125 -37.300781 4.898438 -41.632812 6.640625 -45.65625 C 8.378906 -49.6875 10.789062 -53.242188 13.875 -56.328125 C 16.957031 -59.410156 20.515625 -61.820312 24.546875 -63.5625 C 28.578125 -65.300781 32.910156 -66.171875 37.546875 -66.171875 C 44.003906 -66.171875 49.878906 -64.519531 55.171875 -61.21875 C 60.472656 -57.925781 64.503906 -53.59375 67.265625 -48.21875 L 54.859375 -41.796875 C 53.265625 -44.921875 50.941406 -47.425781 47.890625 -49.3125 C 44.847656 -51.195312 41.398438 -52.140625 37.546875 -52.140625 C 33.921875 -52.140625 30.640625 -51.285156 27.703125 -49.578125 C 24.765625 -47.867188 22.441406 -45.546875 20.734375 -42.609375 C 19.023438 -39.671875 18.171875 -36.351562 18.171875 -32.65625 C 18.171875 -28.957031 19.023438 -25.632812 20.734375 -22.6875 C 22.441406 -19.75 24.765625 -17.425781 27.703125 -15.71875 C 30.640625 -14.019531 33.921875 -13.171875 37.546875 -13.171875 C 41.398438 -13.171875 44.847656 -14.113281 47.890625 -16 C 50.941406 -17.882812 53.265625 -20.390625 54.859375 -23.515625 L 67.265625 -17.09375 C 64.503906 -11.789062 60.472656 -7.46875 55.171875 -4.125 C 49.878906 -0.789062 44.003906 0.875 37.546875 0.875 Z M 37.546875 0.875 "/></g></g></g><g fill="#757575" fill-opacity="1"><g transform="translate(339.785699, 131.366891)"><g><path d="M 8.078125 0 L 6.78125 -3.359375 L 2.53125 -3.359375 L 1.25 0 L 0 0 L 4.140625 -10.625 L 5.25 -10.625 L 9.359375 0 Z M 6.40625 -4.453125 L 5.171875 -7.78125 C 5.140625 -7.863281 5.09375 -8.003906 5.03125 -8.203125 C 4.96875 -8.398438 4.898438 -8.601562 4.828125 -8.8125 C 4.765625 -9.03125 4.710938 -9.207031 4.671875 -9.34375 C 4.617188 -9.144531 4.5625 -8.945312 4.5 -8.75 C 4.445312 -8.550781 4.394531 -8.367188 4.34375 -8.203125 C 4.289062 -8.035156 4.242188 -7.894531 4.203125 -7.78125 L 2.953125 -4.453125 Z M 6.40625 -4.453125 "/></g></g></g><g fill="#757575" fill-opacity="1"><g transform="translate(361.007873, 131.366891)"><g><path d="M 7.40625 -2.8125 C 7.40625 -2.1875 7.25 -1.648438 6.9375 -1.203125 C 6.632812 -0.765625 6.203125 -0.429688 5.640625 -0.203125 C 5.078125 0.0234375 4.421875 0.140625 3.671875 0.140625 C 3.265625 0.140625 2.882812 0.117188 2.53125 0.078125 C 2.175781 0.046875 1.847656 -0.00390625 1.546875 -0.078125 C 1.242188 -0.148438 0.984375 -0.238281 0.765625 -0.34375 L 0.765625 -1.53125 C 1.117188 -1.375 1.554688 -1.234375 2.078125 -1.109375 C 2.597656 -0.984375 3.144531 -0.921875 3.71875 -0.921875 C 4.25 -0.921875 4.695312 -0.988281 5.0625 -1.125 C 5.425781 -1.269531 5.703125 -1.472656 5.890625 -1.734375 C 6.085938 -2.003906 6.1875 -2.332031 6.1875 -2.71875 C 6.1875 -3.070312 6.101562 -3.367188 5.9375 -3.609375 C 5.78125 -3.859375 5.515625 -4.082031 5.140625 -4.28125 C 4.773438 -4.476562 4.273438 -4.691406 3.640625 -4.921875 C 3.191406 -5.085938 2.796875 -5.265625 2.453125 -5.453125 C 2.117188 -5.640625 1.832031 -5.851562 1.59375 -6.09375 C 1.363281 -6.332031 1.1875 -6.609375 1.0625 -6.921875 C 0.945312 -7.242188 0.890625 -7.613281 0.890625 -8.03125 C 0.890625 -8.59375 1.03125 -9.070312 1.3125 -9.46875 C 1.601562 -9.875 2.003906 -10.179688 2.515625 -10.390625 C 3.023438 -10.609375 3.613281 -10.71875 4.28125 -10.71875 C 4.84375 -10.71875 5.363281 -10.664062 5.84375 -10.5625 C 6.320312 -10.457031 6.757812 -10.316406 7.15625 -10.140625 L 6.78125 -9.078125 C 6.394531 -9.242188 5.988281 -9.378906 5.5625 -9.484375 C 5.132812 -9.585938 4.695312 -9.640625 4.25 -9.640625 C 3.789062 -9.640625 3.40625 -9.570312 3.09375 -9.4375 C 2.78125 -9.3125 2.539062 -9.125 2.375 -8.875 C 2.21875 -8.632812 2.140625 -8.347656 2.140625 -8.015625 C 2.140625 -7.648438 2.21875 -7.34375 2.375 -7.09375 C 2.53125 -6.84375 2.78125 -6.625 3.125 -6.4375 C 3.46875 -6.25 3.925781 -6.050781 4.5 -5.84375 C 5.125 -5.613281 5.648438 -5.375 6.078125 -5.125 C 6.515625 -4.875 6.84375 -4.566406 7.0625 -4.203125 C 7.289062 -3.835938 7.40625 -3.375 7.40625 -2.8125 Z M 7.40625 -2.8125 "/></g></g></g><g fill="#757575" fill-opacity="1"><g transform="translate(380.986029, 131.366891)"><g><path d="M 7.40625 -2.8125 C 7.40625 -2.1875 7.25 -1.648438 6.9375 -1.203125 C 6.632812 -0.765625 6.203125 -0.429688 5.640625 -0.203125 C 5.078125 0.0234375 4.421875 0.140625 3.671875 0.140625 C 3.265625 0.140625 2.882812 0.117188 2.53125 0.078125 C 2.175781 0.046875 1.847656 -0.00390625 1.546875 -0.078125 C 1.242188 -0.148438 0.984375 -0.238281 0.765625 -0.34375 L 0.765625 -1.53125 C 1.117188 -1.375 1.554688 -1.234375 2.078125 -1.109375 C 2.597656 -0.984375 3.144531 -0.921875 3.71875 -0.921875 C 4.25 -0.921875 4.695312 -0.988281 5.0625 -1.125 C 5.425781 -1.269531 5.703125 -1.472656 5.890625 -1.734375 C 6.085938 -2.003906 6.1875 -2.332031 6.1875 -2.71875 C 6.1875 -3.070312 6.101562 -3.367188 5.9375 -3.609375 C 5.78125 -3.859375 5.515625 -4.082031 5.140625 -4.28125 C 4.773438 -4.476562 4.273438 -4.691406 3.640625 -4.921875 C 3.191406 -5.085938 2.796875 -5.265625 2.453125 -5.453125 C 2.117188 -5.640625 1.832031 -5.851562 1.59375 -6.09375 C 1.363281 -6.332031 1.1875 -6.609375 1.0625 -6.921875 C 0.945312 -7.242188 0.890625 -7.613281 0.890625 -8.03125 C 0.890625 -8.59375 1.03125 -9.070312 1.3125 -9.46875 C 1.601562 -9.875 2.003906 -10.179688 2.515625 -10.390625 C 3.023438 -10.609375 3.613281 -10.71875 4.28125 -10.71875 C 4.84375 -10.71875 5.363281 -10.664062 5.84375 -10.5625 C 6.320312 -10.457031 6.757812 -10.316406 7.15625 -10.140625 L 6.78125 -9.078125 C 6.394531 -9.242188 5.988281 -9.378906 5.5625 -9.484375 C 5.132812 -9.585938 4.695312 -9.640625 4.25 -9.640625 C 3.789062 -9.640625 3.40625 -9.570312 3.09375 -9.4375 C 2.78125 -9.3125 2.539062 -9.125 2.375 -8.875 C 2.21875 -8.632812 2.140625 -8.347656 2.140625 -8.015625 C 2.140625 -7.648438 2.21875 -7.34375 2.375 -7.09375 C 2.53125 -6.84375 2.78125 -6.625 3.125 -6.4375 C 3.46875 -6.25 3.925781 -6.050781 4.5 -5.84375 C 5.125 -5.613281 5.648438 -5.375 6.078125 -5.125 C 6.515625 -4.875 6.84375 -4.566406 7.0625 -4.203125 C 7.289062 -3.835938 7.40625 -3.375 7.40625 -2.8125 Z M 7.40625 -2.8125 "/></g></g></g><g fill="#757575" fill-opacity="1"><g transform="translate(400.964184, 131.366891)"><g><path d="M 1.453125 0 L 1.453125 -10.578125 L 2.671875 -10.578125 L 2.671875 0 Z M 1.453125 0 "/></g></g></g><g fill="#757575" fill-opacity="1"><g transform="translate(416.957141, 131.366891)"><g><path d="M 7.40625 -2.8125 C 7.40625 -2.1875 7.25 -1.648438 6.9375 -1.203125 C 6.632812 -0.765625 6.203125 -0.429688 5.640625 -0.203125 C 5.078125 0.0234375 4.421875 0.140625 3.671875 0.140625 C 3.265625 0.140625 2.882812 0.117188 2.53125 0.078125 C 2.175781 0.046875 1.847656 -0.00390625 1.546875 -0.078125 C 1.242188 -0.148438 0.984375 -0.238281 0.765625 -0.34375 L 0.765625 -1.53125 C 1.117188 -1.375 1.554688 -1.234375 2.078125 -1.109375 C 2.597656 -0.984375 3.144531 -0.921875 3.71875 -0.921875 C 4.25 -0.921875 4.695312 -0.988281 5.0625 -1.125 C 5.425781 -1.269531 5.703125 -1.472656 5.890625 -1.734375 C 6.085938 -2.003906 6.1875 -2.332031 6.1875 -2.71875 C 6.1875 -3.070312 6.101562 -3.367188 5.9375 -3.609375 C 5.78125 -3.859375 5.515625 -4.082031 5.140625 -4.28125 C 4.773438 -4.476562 4.273438 -4.691406 3.640625 -4.921875 C 3.191406 -5.085938 2.796875 -5.265625 2.453125 -5.453125 C 2.117188 -5.640625 1.832031 -5.851562 1.59375 -6.09375 C 1.363281 -6.332031 1.1875 -6.609375 1.0625 -6.921875 C 0.945312 -7.242188 0.890625 -7.613281 0.890625 -8.03125 C 0.890625 -8.59375 1.03125 -9.070312 1.3125 -9.46875 C 1.601562 -9.875 2.003906 -10.179688 2.515625 -10.390625 C 3.023438 -10.609375 3.613281 -10.71875 4.28125 -10.71875 C 4.84375 -10.71875 5.363281 -10.664062 5.84375 -10.5625 C 6.320312 -10.457031 6.757812 -10.316406 7.15625 -10.140625 L 6.78125 -9.078125 C 6.394531 -9.242188 5.988281 -9.378906 5.5625 -9.484375 C 5.132812 -9.585938 4.695312 -9.640625 4.25 -9.640625 C 3.789062 -9.640625 3.40625 -9.570312 3.09375 -9.4375 C 2.78125 -9.3125 2.539062 -9.125 2.375 -8.875 C 2.21875 -8.632812 2.140625 -8.347656 2.140625 -8.015625 C 2.140625 -7.648438 2.21875 -7.34375 2.375 -7.09375 C 2.53125 -6.84375 2.78125 -6.625 3.125 -6.4375 C 3.46875 -6.25 3.925781 -6.050781 4.5 -5.84375 C 5.125 -5.613281 5.648438 -5.375 6.078125 -5.125 C 6.515625 -4.875 6.84375 -4.566406 7.0625 -4.203125 C 7.289062 -3.835938 7.40625 -3.375 7.40625 -2.8125 Z M 7.40625 -2.8125 "/></g></g></g><g fill="#757575" fill-opacity="1"><g transform="translate(436.935297, 131.366891)"><g><path d="M 4.6875 0 L 3.453125 0 L 3.453125 -9.484375 L 0.125 -9.484375 L 0.125 -10.578125 L 8 -10.578125 L 8 -9.484375 L 4.6875 -9.484375 Z M 4.6875 0 "/></g></g></g><g fill="#757575" fill-opacity="1"><g transform="translate(456.949615, 131.366891)"><g><path d="M 7.328125 0 L 1.453125 0 L 1.453125 -10.578125 L 7.328125 -10.578125 L 7.328125 -9.484375 L 2.671875 -9.484375 L 2.671875 -6.0625 L 7.0625 -6.0625 L 7.0625 -5 L 2.671875 -5 L 2.671875 -1.078125 L 7.328125 -1.078125 Z M 5.15625 -14 C 5.269531 -13.78125 5.4375 -13.535156 5.65625 -13.265625 C 5.875 -12.992188 6.101562 -12.726562 6.34375 -12.46875 C 6.582031 -12.207031 6.796875 -11.984375 6.984375 -11.796875 L 6.984375 -11.625 L 6.140625 -11.625 C 5.878906 -11.800781 5.609375 -12.007812 5.328125 -12.25 C 5.054688 -12.5 4.789062 -12.753906 4.53125 -13.015625 C 4.269531 -12.753906 4.003906 -12.5 3.734375 -12.25 C 3.472656 -12.007812 3.210938 -11.800781 2.953125 -11.625 L 2.125 -11.625 L 2.125 -11.796875 C 2.3125 -11.984375 2.519531 -12.207031 2.75 -12.46875 C 2.976562 -12.726562 3.203125 -12.992188 3.421875 -13.265625 C 3.640625 -13.535156 3.8125 -13.78125 3.9375 -14 Z M 5.15625 -14 "/></g></g></g><g fill="#757575" fill-opacity="1"><g transform="translate(477.03626, 131.366891)"><g><path d="M 9.71875 0 L 8.296875 0 L 2.53125 -8.875 L 2.46875 -8.875 C 2.488281 -8.644531 2.503906 -8.378906 2.515625 -8.078125 C 2.535156 -7.773438 2.550781 -7.453125 2.5625 -7.109375 C 2.582031 -6.773438 2.59375 -6.429688 2.59375 -6.078125 L 2.59375 0 L 1.453125 0 L 1.453125 -10.578125 L 2.859375 -10.578125 L 8.59375 -1.71875 L 8.65625 -1.71875 C 8.644531 -1.882812 8.628906 -2.125 8.609375 -2.4375 C 8.597656 -2.75 8.585938 -3.082031 8.578125 -3.4375 C 8.566406 -3.800781 8.5625 -4.140625 8.5625 -4.453125 L 8.5625 -10.578125 L 9.71875 -10.578125 Z M 9.71875 0 "/></g></g></g><g fill="#757575" fill-opacity="1"><g transform="translate(500.044902, 131.366891)"><g><path d="M 5.96875 -9.640625 C 5.382812 -9.640625 4.859375 -9.539062 4.390625 -9.34375 C 3.929688 -9.144531 3.535156 -8.851562 3.203125 -8.46875 C 2.878906 -8.09375 2.628906 -7.632812 2.453125 -7.09375 C 2.285156 -6.5625 2.203125 -5.960938 2.203125 -5.296875 C 2.203125 -4.410156 2.335938 -3.640625 2.609375 -2.984375 C 2.890625 -2.328125 3.304688 -1.820312 3.859375 -1.46875 C 4.410156 -1.113281 5.101562 -0.9375 5.9375 -0.9375 C 6.40625 -0.9375 6.847656 -0.972656 7.265625 -1.046875 C 7.679688 -1.128906 8.085938 -1.234375 8.484375 -1.359375 L 8.484375 -0.28125 C 8.097656 -0.132812 7.691406 -0.03125 7.265625 0.03125 C 6.835938 0.101562 6.332031 0.140625 5.75 0.140625 C 4.675781 0.140625 3.78125 -0.078125 3.0625 -0.515625 C 2.34375 -0.960938 1.800781 -1.59375 1.4375 -2.40625 C 1.082031 -3.226562 0.90625 -4.191406 0.90625 -5.296875 C 0.90625 -6.097656 1.015625 -6.828125 1.234375 -7.484375 C 1.460938 -8.148438 1.789062 -8.722656 2.21875 -9.203125 C 2.65625 -9.691406 3.1875 -10.066406 3.8125 -10.328125 C 4.445312 -10.585938 5.171875 -10.71875 5.984375 -10.71875 C 6.515625 -10.71875 7.03125 -10.664062 7.53125 -10.5625 C 8.03125 -10.457031 8.476562 -10.304688 8.875 -10.109375 L 8.375 -9.0625 C 8.039062 -9.21875 7.671875 -9.351562 7.265625 -9.46875 C 6.867188 -9.582031 6.4375 -9.640625 5.96875 -9.640625 Z M 5.96875 -9.640625 "/></g></g></g><g fill="#757575" fill-opacity="1"><g transform="translate(521.230913, 131.366891)"><g><path d="M 1.453125 0 L 1.453125 -10.578125 L 2.671875 -10.578125 L 2.671875 0 Z M 1.453125 0 "/></g></g></g><g fill="#757575" fill-opacity="1"><g transform="translate(537.223869, 131.366891)"><g><path d="M 8.078125 0 L 6.78125 -3.359375 L 2.53125 -3.359375 L 1.25 0 L 0 0 L 4.140625 -10.625 L 5.25 -10.625 L 9.359375 0 Z M 6.40625 -4.453125 L 5.171875 -7.78125 C 5.140625 -7.863281 5.09375 -8.003906 5.03125 -8.203125 C 4.96875 -8.398438 4.898438 -8.601562 4.828125 -8.8125 C 4.765625 -9.03125 4.710938 -9.207031 4.671875 -9.34375 C 4.617188 -9.144531 4.5625 -8.945312 4.5 -8.75 C 4.445312 -8.550781 4.394531 -8.367188 4.34375 -8.203125 C 4.289062 -8.035156 4.242188 -7.894531 4.203125 -7.78125 L 2.953125 -4.453125 Z M 6.40625 -4.453125 "/></g></g></g><g fill="#757575" fill-opacity="1"><g transform="translate(558.446043, 131.366891)"><g/></g></g><g fill="#757575" fill-opacity="1"><g transform="translate(574.149693, 131.366891)"><g><path d="M 4.6875 0 L 3.453125 0 L 3.453125 -9.484375 L 0.125 -9.484375 L 0.125 -10.578125 L 8 -10.578125 L 8 -9.484375 L 4.6875 -9.484375 Z M 4.6875 0 "/></g></g></g><g fill="#757575" fill-opacity="1"><g transform="translate(594.164012, 131.366891)"><g><path d="M 7.328125 0 L 1.453125 0 L 1.453125 -10.578125 L 7.328125 -10.578125 L 7.328125 -9.484375 L 2.671875 -9.484375 L 2.671875 -6.0625 L 7.0625 -6.0625 L 7.0625 -5 L 2.671875 -5 L 2.671875 -1.078125 L 7.328125 -1.078125 Z M 6.625 -14 L 6.625 -13.859375 C 6.53125 -13.722656 6.398438 -13.554688 6.234375 -13.359375 C 6.066406 -13.160156 5.878906 -12.953125 5.671875 -12.734375 C 5.472656 -12.523438 5.269531 -12.320312 5.0625 -12.125 C 4.863281 -11.9375 4.675781 -11.769531 4.5 -11.625 L 3.703125 -11.625 L 3.703125 -11.8125 C 3.859375 -11.988281 4.023438 -12.207031 4.203125 -12.46875 C 4.390625 -12.726562 4.566406 -12.992188 4.734375 -13.265625 C 4.910156 -13.535156 5.054688 -13.78125 5.171875 -14 Z M 6.625 -14 "/></g></g></g><g fill="#757575" fill-opacity="1"><g transform="translate(614.250657, 131.366891)"><g><path d="M 5.96875 -9.640625 C 5.382812 -9.640625 4.859375 -9.539062 4.390625 -9.34375 C 3.929688 -9.144531 3.535156 -8.851562 3.203125 -8.46875 C 2.878906 -8.09375 2.628906 -7.632812 2.453125 -7.09375 C 2.285156 -6.5625 2.203125 -5.960938 2.203125 -5.296875 C 2.203125 -4.410156 2.335938 -3.640625 2.609375 -2.984375 C 2.890625 -2.328125 3.304688 -1.820312 3.859375 -1.46875 C 4.410156 -1.113281 5.101562 -0.9375 5.9375 -0.9375 C 6.40625 -0.9375 6.847656 -0.972656 7.265625 -1.046875 C 7.679688 -1.128906 8.085938 -1.234375 8.484375 -1.359375 L 8.484375 -0.28125 C 8.097656 -0.132812 7.691406 -0.03125 7.265625 0.03125 C 6.835938 0.101562 6.332031 0.140625 5.75 0.140625 C 4.675781 0.140625 3.78125 -0.078125 3.0625 -0.515625 C 2.34375 -0.960938 1.800781 -1.59375 1.4375 -2.40625 C 1.082031 -3.226562 0.90625 -4.191406 0.90625 -5.296875 C 0.90625 -6.097656 1.015625 -6.828125 1.234375 -7.484375 C 1.460938 -8.148438 1.789062 -8.722656 2.21875 -9.203125 C 2.65625 -9.691406 3.1875 -10.066406 3.8125 -10.328125 C 4.445312 -10.585938 5.171875 -10.71875 5.984375 -10.71875 C 6.515625 -10.71875 7.03125 -10.664062 7.53125 -10.5625 C 8.03125 -10.457031 8.476562 -10.304688 8.875 -10.109375 L 8.375 -9.0625 C 8.039062 -9.21875 7.671875 -9.351562 7.265625 -9.46875 C 6.867188 -9.582031 6.4375 -9.640625 5.96875 -9.640625 Z M 5.96875 -9.640625 "/></g></g></g><g fill="#757575" fill-opacity="1"><g transform="translate(635.436667, 131.366891)"><g><path d="M 9.71875 0 L 8.296875 0 L 2.53125 -8.875 L 2.46875 -8.875 C 2.488281 -8.644531 2.503906 -8.378906 2.515625 -8.078125 C 2.535156 -7.773438 2.550781 -7.453125 2.5625 -7.109375 C 2.582031 -6.773438 2.59375 -6.429688 2.59375 -6.078125 L 2.59375 0 L 1.453125 0 L 1.453125 -10.578125 L 2.859375 -10.578125 L 8.59375 -1.71875 L 8.65625 -1.71875 C 8.644531 -1.882812 8.628906 -2.125 8.609375 -2.4375 C 8.597656 -2.75 8.585938 -3.082031 8.578125 -3.4375 C 8.566406 -3.800781 8.5625 -4.140625 8.5625 -4.453125 L 8.5625 -10.578125 L 9.71875 -10.578125 Z M 9.71875 0 "/></g></g></g><g fill="#757575" fill-opacity="1"><g transform="translate(658.445309, 131.366891)"><g><path d="M 1.453125 0 L 1.453125 -10.578125 L 2.671875 -10.578125 L 2.671875 0 Z M 1.453125 0 "/></g></g></g><g fill="#757575" fill-opacity="1"><g transform="translate(674.438266, 131.366891)"><g><path d="M 5.96875 -9.640625 C 5.382812 -9.640625 4.859375 -9.539062 4.390625 -9.34375 C 3.929688 -9.144531 3.535156 -8.851562 3.203125 -8.46875 C 2.878906 -8.09375 2.628906 -7.632812 2.453125 -7.09375 C 2.285156 -6.5625 2.203125 -5.960938 2.203125 -5.296875 C 2.203125 -4.410156 2.335938 -3.640625 2.609375 -2.984375 C 2.890625 -2.328125 3.304688 -1.820312 3.859375 -1.46875 C 4.410156 -1.113281 5.101562 -0.9375 5.9375 -0.9375 C 6.40625 -0.9375 6.847656 -0.972656 7.265625 -1.046875 C 7.679688 -1.128906 8.085938 -1.234375 8.484375 -1.359375 L 8.484375 -0.28125 C 8.097656 -0.132812 7.691406 -0.03125 7.265625 0.03125 C 6.835938 0.101562 6.332031 0.140625 5.75 0.140625 C 4.675781 0.140625 3.78125 -0.078125 3.0625 -0.515625 C 2.34375 -0.960938 1.800781 -1.59375 1.4375 -2.40625 C 1.082031 -3.226562 0.90625 -4.191406 0.90625 -5.296875 C 0.90625 -6.097656 1.015625 -6.828125 1.234375 -7.484375 C 1.460938 -8.148438 1.789062 -8.722656 2.21875 -9.203125 C 2.65625 -9.691406 3.1875 -10.066406 3.8125 -10.328125 C 4.445312 -10.585938 5.171875 -10.71875 5.984375 -10.71875 C 6.515625 -10.71875 7.03125 -10.664062 7.53125 -10.5625 C 8.03125 -10.457031 8.476562 -10.304688 8.875 -10.109375 L 8.375 -9.0625 C 8.039062 -9.21875 7.671875 -9.351562 7.265625 -9.46875 C 6.867188 -9.582031 6.4375 -9.640625 5.96875 -9.640625 Z M 5.96875 -9.640625 "/></g></g></g><g fill="#757575" fill-opacity="1"><g transform="translate(695.624276, 131.366891)"><g><path d="M 8.078125 0 L 6.78125 -3.359375 L 2.53125 -3.359375 L 1.25 0 L 0 0 L 4.140625 -10.625 L 5.25 -10.625 L 9.359375 0 Z M 6.40625 -4.453125 L 5.171875 -7.78125 C 5.140625 -7.863281 5.09375 -8.003906 5.03125 -8.203125 C 4.96875 -8.398438 4.898438 -8.601562 4.828125 -8.8125 C 4.765625 -9.03125 4.710938 -9.207031 4.671875 -9.34375 C 4.617188 -9.144531 4.5625 -8.945312 4.5 -8.75 C 4.445312 -8.550781 4.394531 -8.367188 4.34375 -8.203125 C 4.289062 -8.035156 4.242188 -7.894531 4.203125 -7.78125 L 2.953125 -4.453125 Z M 6.40625 -4.453125 "/></g></g></g><path fill="#ffffff" d="M 206.796875 161.328125 C 200.667969 164.546875 191.140625 166.179688 177.214844 160.484375 C 166.226562 155.988281 155.679688 155.628906 147.347656 156.617188 C 155.3125 156.46875 164.792969 157.988281 174.628906 162.496094 C 194.800781 171.738281 206.855469 161.859375 206.796875 161.328125 " fill-opacity="1" fill-rule="nonzero"/><path fill="#ffffff" d="M 146.117188 163.160156 C 149.191406 163.160156 151.679688 165.652344 151.679688 168.722656 C 151.679688 171.800781 149.191406 174.289062 146.117188 174.289062 C 143.042969 174.289062 140.554688 171.800781 140.554688 168.722656 C 140.554688 165.652344 143.042969 163.160156 146.117188 163.160156 Z M 153.746094 180.765625 C 154.890625 180.765625 155.816406 181.695312 155.816406 182.835938 C 155.816406 183.976562 154.890625 184.902344 153.746094 184.902344 C 152.605469 184.902344 151.679688 183.976562 151.679688 182.835938 C 151.679688 181.695312 152.605469 180.765625 153.746094 180.765625 Z M 160.300781 162.609375 C 162.410156 162.609375 164.117188 164.320312 164.117188 166.429688 C 164.117188 168.535156 162.410156 170.246094 160.300781 170.246094 C 158.191406 170.246094 156.480469 168.535156 156.480469 166.429688 C 156.480469 164.320312 158.191406 162.609375 160.300781 162.609375 Z M 165.644531 178.105469 C 165.644531 180.214844 163.933594 181.925781 161.824219 181.925781 C 159.71875 181.925781 158.007812 180.214844 158.007812 178.105469 C 158.007812 175.996094 159.71875 174.289062 161.824219 174.289062 C 163.933594 174.289062 165.644531 175.996094 165.644531 178.105469 Z M 170.472656 168.179688 C 171.613281 168.179688 172.539062 169.105469 172.539062 170.246094 C 172.539062 171.386719 171.613281 172.3125 170.472656 172.3125 C 169.328125 172.3125 168.402344 171.386719 168.402344 170.246094 C 168.402344 169.105469 169.328125 168.179688 170.472656 168.179688 Z M 177.070312 181.925781 C 178.210938 181.925781 179.136719 182.851562 179.136719 183.992188 C 179.136719 185.136719 178.210938 186.058594 177.070312 186.058594 C 175.929688 186.058594 175.003906 185.136719 175.003906 183.992188 C 175.003906 182.851562 175.929688 181.925781 177.070312 181.925781 Z M 164.117188 218.144531 C 189.984375 218.144531 211.03125 197.101562 211.03125 171.234375 C 211.03125 170.523438 211.007812 169.816406 210.972656 169.109375 C 202.636719 172.789062 189.976562 174.078125 172.191406 165.34375 C 150.84375 154.859375 129.980469 157.039062 118.675781 159.5625 C 117.71875 163.296875 117.207031 167.207031 117.207031 171.234375 C 117.207031 197.101562 138.25 218.144531 164.117188 218.144531 " fill-opacity="1" fill-rule="nonzero"/><path fill="#ffffff" d="M 107.277344 152.6875 L 64.621094 152.6875 C 61.972656 152.6875 59.820312 154.839844 59.820312 157.492188 C 59.820312 160.144531 61.972656 162.289062 64.621094 162.289062 L 113.414062 162.289062 C 113.84375 159.832031 114.449219 157.433594 115.21875 155.109375 C 115.261719 154.972656 115.3125 154.839844 115.355469 154.703125 C 115.566406 154.085938 115.785156 153.472656 116.015625 152.867188 C 116.761719 150.914062 117.617188 149.015625 118.582031 147.1875 L 109.371094 147.1875 C 108.582031 148.976562 107.890625 150.8125 107.277344 152.6875 " fill-opacity="1" fill-rule="nonzero"/><path fill="#ffffff" d="M 104.652344 165.046875 C 104.464844 166.859375 104.363281 168.695312 104.339844 170.550781 L 77.101562 170.550781 C 74.449219 170.550781 72.300781 172.699219 72.300781 175.351562 C 72.300781 178.003906 74.449219 180.152344 77.101562 180.152344 L 113.410156 180.152344 C 113.019531 177.917969 112.765625 175.632812 112.671875 173.304688 L 112.675781 173.304688 C 112.667969 173.164062 112.664062 173.019531 112.660156 172.875 C 112.644531 172.328125 112.625 171.785156 112.625 171.234375 C 112.625 171.007812 112.640625 170.78125 112.640625 170.550781 L 112.632812 170.550781 C 112.660156 168.691406 112.789062 166.855469 113.007812 165.046875 L 104.652344 165.046875 " fill-opacity="1" fill-rule="nonzero"/><g clip-path="url(#246f1a5b21)"><path fill="#ffffff" d="M 164.117188 111.449219 C 144.800781 111.449219 127.628906 120.613281 116.699219 134.828125 L 51.691406 134.828125 C 49.042969 134.828125 46.890625 136.976562 46.890625 139.628906 C 46.890625 142.28125 49.042969 144.429688 51.691406 144.429688 L 120.144531 144.429688 C 121.625 142.007812 123.300781 139.722656 125.148438 137.582031 L 125.160156 137.582031 C 134.601562 126.660156 148.546875 119.742188 164.117188 119.742188 C 192.558594 119.742188 215.613281 142.796875 215.613281 171.234375 C 215.613281 199.675781 192.558594 222.726562 164.117188 222.726562 C 156.964844 222.726562 150.15625 221.269531 143.964844 218.632812 L 127.683594 218.632812 C 137.769531 226.398438 150.402344 231.019531 164.117188 231.019531 C 197.136719 231.019531 223.902344 204.253906 223.902344 171.234375 C 223.902344 138.214844 197.136719 111.449219 164.117188 111.449219 " fill-opacity="1" fill-rule="nonzero"/></g><path fill="#ffffff" d="M 52.292969 157.492188 C 52.292969 154.839844 50.140625 152.6875 47.492188 152.6875 L 20.019531 152.6875 C 17.578125 152.6875 15.398438 154.429688 15.078125 156.84375 C 14.691406 159.769531 16.984375 162.289062 19.835938 162.289062 L 47.492188 162.289062 C 50.140625 162.289062 52.292969 160.144531 52.292969 157.492188 " fill-opacity="1" fill-rule="nonzero"/><path fill="#ffffff" d="M 26.507812 144.429688 L 34.5625 144.429688 C 37.214844 144.429688 39.367188 142.28125 39.367188 139.628906 C 39.367188 136.976562 37.214844 134.828125 34.5625 134.828125 L 26.328125 134.828125 C 23.476562 134.828125 21.183594 137.347656 21.570312 140.273438 C 21.890625 142.691406 24.070312 144.429688 26.507812 144.429688 " fill-opacity="1" fill-rule="nonzero"/><path fill="#ffffff" d="M 48.910156 193.214844 C 48.910156 195.867188 51.0625 198.015625 53.714844 198.015625 L 120.128906 198.015625 C 118.328125 195.058594 116.824219 191.902344 115.640625 188.597656 C 114.980469 186.746094 114.421875 184.847656 113.96875 182.910156 L 105.476562 182.910156 C 105.84375 184.777344 106.308594 186.613281 106.851562 188.410156 L 53.714844 188.410156 C 51.0625 188.410156 48.910156 190.5625 48.910156 193.214844 " fill-opacity="1" fill-rule="nonzero"/><path fill="#ffffff" d="M 137.964844 215.589844 C 134.765625 213.699219 131.785156 211.46875 129.078125 208.953125 C 128.503906 208.417969 127.945312 207.867188 127.394531 207.308594 C 127.242188 207.152344 127.089844 206.992188 126.9375 206.835938 C 125.128906 204.945312 123.457031 202.917969 121.949219 200.773438 L 112.128906 200.773438 C 113.214844 202.675781 114.410156 204.507812 115.691406 206.273438 L 73.339844 206.273438 C 70.6875 206.273438 68.539062 208.425781 68.539062 211.074219 C 68.539062 213.726562 70.6875 215.875 73.339844 215.875 L 136.351562 215.875 C 136.917969 215.875 137.460938 215.773438 137.964844 215.589844 " fill-opacity="1" fill-rule="nonzero"/><path fill="#ffffff" d="M 56.207031 206.273438 L 48.148438 206.273438 C 45.292969 206.273438 43 208.796875 43.386719 211.722656 C 43.707031 214.136719 45.890625 215.875 48.324219 215.875 L 56.207031 215.875 C 58.859375 215.875 61.007812 213.726562 61.007812 211.074219 C 61.007812 208.425781 58.859375 206.273438 56.207031 206.273438 " fill-opacity="1" fill-rule="nonzero"/><path fill="#ffffff" d="M 33.953125 175.996094 C 34.273438 178.414062 36.453125 180.152344 38.890625 180.152344 L 59.972656 180.152344 C 62.625 180.152344 64.773438 178.003906 64.773438 175.351562 C 64.773438 172.699219 62.625 170.550781 59.972656 170.550781 L 38.710938 170.550781 C 35.855469 170.550781 33.566406 173.074219 33.953125 175.996094 " fill-opacity="1" fill-rule="nonzero"/><path fill="#ffffff" d="M 36.582031 188.410156 L 29.273438 188.410156 C 26.421875 188.410156 24.128906 190.933594 24.515625 193.859375 C 24.835938 196.277344 27.019531 198.015625 29.453125 198.015625 L 36.582031 198.015625 C 39.234375 198.015625 41.382812 195.867188 41.382812 193.214844 C 41.382812 190.5625 39.234375 188.410156 36.582031 188.410156 " fill-opacity="1" fill-rule="nonzero"/></svg>