<svg id="Capa_1" enable-background="new 0 0 512 512" viewBox="0 0 512 512" xmlns="http://www.w3.org/2000/svg"><g><path d="m46.003 0v512h329.952v-15h-314.952v-81.699c18.497 30.835 52.253 51.519 90.753 51.519h208.489c38.5 0 72.256-20.683 90.753-51.519v81.699h-30.042v15h45.042v-512zm314.241 451.819h-208.488c-50.042 0-90.753-40.712-90.753-90.753v-284.545h139.824l18.412 18.411c-21.838 4.942-42.451 14.314-60.85 27.807l8.87 12.096c25.857-18.961 56.527-28.984 88.696-28.984 82.792 0 150.149 67.356 150.149 150.149s-67.356 150.149-150.149 150.149-150.149-67.357-150.149-150.149c0-42.701 18.275-83.523 50.14-111.998l-9.995-11.185c-35.045 31.318-55.145 76.216-55.145 123.183 0 91.063 74.085 165.149 165.149 165.149s165.149-74.086 165.149-165.149c0-78.199-54.633-143.876-127.734-160.872l18.606-18.606h48.979v-15h-55.191l-30.469 30.468c-6.346-.744-12.797-1.138-19.34-1.138-6.243 0-12.434.351-18.554 1.031l-30.361-30.36h-146.037v-46.523h188.241c-13.928 3.095-24.377 15.54-24.377 30.387 0 17.167 13.967 31.134 31.134 31.134s31.134-13.967 31.134-31.134c0-14.847-10.449-27.292-24.377-30.387h188.24v46.521h-75.042v15h75.042v284.544c-.001 50.042-40.712 90.754-90.754 90.754zm-104.244-422.566c8.896 0 16.134 7.238 16.134 16.134s-7.238 16.134-16.134 16.134-16.134-7.238-16.134-16.134 7.238-16.134 16.134-16.134z"/><path d="m390.955 497h15v15h-15z"/><path d="m255.955 390.713c74.281 0 134.713-60.432 134.713-134.713s-60.432-134.713-134.713-134.713-134.713 60.432-134.713 134.713 60.432 134.713 134.713 134.713zm-94.529-61.347 32.055-32.055c28.391-28.39 39.572-70.118 29.18-108.9l-11.622-43.371c9.103-3.698 18.758-6.307 28.806-7.665l8.499 31.719c12.307 45.928 48.457 82.201 94.343 94.662l31.851 8.65c-1.383 10.047-4.017 19.698-7.74 28.795l-31.969-8.643c-45.855-12.397-95.207.767-128.794 34.355l-23.543 23.543c-7.864-6.13-14.944-13.219-21.066-21.09zm94.529 46.347c-22.202 0-43.007-6.082-60.849-16.658l21.536-21.536c29.801-29.802 73.586-41.482 114.273-30.481l29.209 7.897c-20.596 36.261-59.571 60.778-104.169 60.778zm119.698-118.548-29.034-7.885c-40.751-11.067-72.856-43.28-83.785-84.068l-7.747-28.914c66.305-.533 124.123 59.702 120.566 120.867zm-178.364-105.484 10.882 40.612c9.009 33.623-.684 69.799-25.297 94.412l-30.038 30.038c-10.536-17.819-16.594-38.585-16.594-60.743 0-44.708 24.639-83.764 61.047-104.319z"/><path d="m255.955 278.5c12.407 0 22.5-10.093 22.5-22.5s-10.093-22.5-22.5-22.5-22.5 10.093-22.5 22.5 10.093 22.5 22.5 22.5zm0-30c4.136 0 7.5 3.364 7.5 7.5s-3.364 7.5-7.5 7.5-7.5-3.364-7.5-7.5 3.364-7.5 7.5-7.5z"/><path d="m90.806 31h15v15h-15z"/><path d="m121.242 31h15v15h-15z"/><path d="m151.115 31h15v15h-15z"/><path d="m406.104 31h15v15h-15z"/><path d="m376.1 31h15v15h-15z"/><path d="m173.455 196h15v15h-15z"/><path d="m346.1 31h15v15h-15z"/></g></svg>