<svg id="Capa_1" enable-background="new 0 0 512 512" viewBox="0 0 512 512" xmlns="http://www.w3.org/2000/svg"><g><path d="m345.987 497h15v15h-15z"/><path d="m421.018 92.235-.011-.013-22.521-26.521v-36.398c0-16.158-13.145-29.303-29.302-29.303h-68.196v15h68.196c7.887 0 14.302 6.416 14.302 14.303v31.654h-254.962v-31.654c0-7.887 6.416-14.303 14.303-14.303h143.162v-15h-143.162c-16.157 0-29.303 13.145-29.303 29.303v36.399l-22.542 26.544v419.754h240.006v-15h-225.006v-360.95h75.009v-15h-75.009v-15h300.026v15h-108.126l-15 15h-53.786l-15-15h-18.106v15h11.893l15 15h66.211l15-15h101.913v360.95h-30.021v15h45.021zm-296.524-16.279h263.022l12.819 15.095h-288.66z"/><path d="m143.492 30.999h15v15h-15z"/><path d="m173.491 30.999h164.986v15h-164.986z"/><path d="m353.487 30.999h15v15h-15z"/><path d="m121.088 150.997h15v15h-15z"/><path d="m150.96 150.997h15v15h-15z"/></g></svg>