<?xml version="1.0" encoding="iso-8859-1"?>
<!-- Generator: Adobe Illustrator 19.0.0, SVG Export Plug-In . SVG Version: 6.00 Build 0)  -->
<svg version="1.1" id="Capa_1" xmlns="http://www.w3.org/2000/svg" xmlns:xlink="http://www.w3.org/1999/xlink" x="0px" y="0px"
	 viewBox="0 0 512 512" style="enable-background:new 0 0 512 512;" xml:space="preserve">
<g>
	<g>
		<path d="M30.118,0v512h451.765V0H30.118z M466.824,496.941H45.176v-15.059h308.706v-15.059H45.176V158.118h75.294v-15.059H45.176
			V128h203.294c8.303,0,15.059,6.755,15.059,15.059c0,16.607,13.511,30.118,30.118,30.118h173.176V496.941z M466.824,158.118
			H293.647c-8.303,0-15.059-6.755-15.059-15.059c0-16.607-13.511-30.118-30.118-30.118H45.176V15.059h421.647V158.118z"/>
	</g>
</g>
<g>
	<g>
		<path d="M97.882,52.706c-12.456,0-22.588,10.134-22.588,22.588s10.133,22.588,22.588,22.588c12.456,0,22.588-10.134,22.588-22.588
			S110.338,52.706,97.882,52.706z M97.882,82.824c-4.152,0-7.529-3.378-7.529-7.529c0-4.151,3.377-7.529,7.529-7.529
			s7.529,3.378,7.529,7.529C105.412,79.445,102.035,82.824,97.882,82.824z"/>
	</g>
</g>
<g>
	<g>
		<rect x="60.235" y="30.118" width="15.059" height="15.059"/>
	</g>
</g>
<g>
	<g>
		<rect x="90.353" y="30.118" width="15.059" height="15.059"/>
	</g>
</g>
<g>
	<g>
		<rect x="120.471" y="30.118" width="15.059" height="15.059"/>
	</g>
</g>
<g>
	<g>
		<path d="M195.765,52.706c-12.456,0-22.588,10.134-22.588,22.588s10.133,22.588,22.588,22.588
			c12.456,0,22.588-10.134,22.588-22.588S208.22,52.706,195.765,52.706z M195.765,82.824c-4.152,0-7.529-3.378-7.529-7.529
			c0-4.151,3.377-7.529,7.529-7.529s7.529,3.378,7.529,7.529C203.294,79.445,199.917,82.824,195.765,82.824z"/>
	</g>
</g>
<g>
	<g>
		<rect x="158.118" y="30.118" width="15.059" height="15.059"/>
	</g>
</g>
<g>
	<g>
		<rect x="188.235" y="30.118" width="15.059" height="15.059"/>
	</g>
</g>
<g>
	<g>
		<rect x="218.353" y="30.118" width="15.059" height="15.059"/>
	</g>
</g>
<g>
	<g>
		<path d="M293.647,30.118v112.941h158.118V30.118H293.647z M436.706,52.706h-15.059v15.059h15.059V128h-128V67.765h15.059V52.706
			h-15.059v-7.529h128V52.706z"/>
	</g>
</g>
<g>
	<g>
		<rect x="323.765" y="82.824" width="15.059" height="15.059"/>
	</g>
</g>
<g>
	<g>
		<rect x="346.353" y="82.824" width="77.176" height="15.059"/>
	</g>
</g>
<g>
	<g>
		<rect x="323.765" y="105.412" width="15.059" height="15.059"/>
	</g>
</g>
<g>
	<g>
		<rect x="346.353" y="105.412" width="77.176" height="15.059"/>
	</g>
</g>
<g>
	<g>
		<rect x="338.824" y="52.706" width="67.765" height="15.059"/>
	</g>
</g>
<g>
	<g>
		<path d="M263.529,193.882c-70.58,0-128,57.42-128,128s57.42,128,128,128s128-57.42,128-128S334.109,193.882,263.529,193.882z
			 M263.529,434.824c-62.276,0-112.941-50.665-112.941-112.941s50.665-112.941,112.941-112.941s112.941,50.665,112.941,112.941
			S325.806,434.824,263.529,434.824z"/>
	</g>
</g>
<g>
	<g>
		<path d="M263.529,222.118c-53.973,0-97.882,43.909-97.882,97.882s43.909,97.882,97.882,97.882s97.882-43.91,97.882-97.882
			S317.502,222.118,263.529,222.118z M263.529,402.824c-33.915,0-63.12-20.499-75.913-49.751c5.648-1.331,10.69-4.249,14.617-8.266
			c4.835,5.557,11.957,9.075,19.884,9.075c7.927,0,15.049-3.519,19.884-9.075c5.471,5.597,13.101,9.075,21.528,9.075
			s16.057-3.479,21.528-9.075c4.835,5.557,11.957,9.075,19.884,9.075c7.927,0,15.049-3.519,19.884-9.075
			c3.927,4.018,8.97,6.934,14.617,8.266C326.649,382.324,297.445,402.824,263.529,402.824z M331.294,323.765h-15.059v3.765
			c0,6.227-5.067,11.294-11.294,11.294c-6.227,0-11.294-5.067-11.294-11.294v-3.765h-15.059c0,8.303-6.755,15.059-15.059,15.059
			c-8.303,0-15.059-6.755-15.059-15.059h-15.059v3.765c0,6.227-5.067,11.294-11.294,11.294c-6.227,0-11.294-5.067-11.294-11.294
			v-3.765h-15.059c0,7.574-5.626,13.842-12.914,14.888c-1.386-5.999-2.144-12.238-2.144-18.653
			c0-45.669,37.154-82.823,82.824-82.823c45.669,0,82.824,37.154,82.824,82.823c0,6.415-0.757,12.653-2.144,18.653
			C336.92,337.607,331.294,331.338,331.294,323.765z"/>
	</g>
</g>
<g>
	<g>
		<path d="M328.746,282.348l-13.035,7.539c1.546,2.673,2.895,5.487,4.01,8.363l14.041-5.441
			C332.368,289.212,330.681,285.692,328.746,282.348z"/>
	</g>
</g>
<g>
	<g>
		<path d="M292.813,250.615l-5.861,13.871c9.521,4.023,17.912,10.492,24.264,18.707l11.914-9.21
			C315.198,263.724,304.714,255.644,292.813,250.615z"/>
	</g>
</g>
<g>
	<g>
		<path d="M263.529,244.706c-26.483,0-51.326,14.172-64.832,36.985l12.958,7.672c10.809-18.257,30.686-29.599,51.875-29.599
			c4.79,0,9.555,0.563,14.162,1.673l3.527-14.64C275.457,245.41,269.506,244.706,263.529,244.706z"/>
	</g>
</g>
<g>
	<g>
		<rect x="135.529" y="143.059" width="30.118" height="15.059"/>
	</g>
</g>
<g>
	<g>
		<rect x="180.706" y="143.059" width="15.059" height="15.059"/>
	</g>
</g>
<g>
	<g>
		<path d="M368.941,429.177v60.235h90.353v-60.235H368.941z M444.235,474.353H384v-30.118h60.235V474.353z"/>
	</g>
</g>
<g>
	<g>
		<rect x="391.529" y="451.765" width="15.059" height="15.059"/>
	</g>
</g>
<g>
	<g>
		<rect x="421.647" y="451.765" width="15.059" height="15.059"/>
	</g>
</g>
<g>
	<g>
		<rect x="436.706" y="188.235" width="15.059" height="15.059"/>
	</g>
</g>
<g>
	<g>
		<rect x="60.235" y="436.706" width="15.059" height="15.059"/>
	</g>
</g>
<g>
</g>
<g>
</g>
<g>
</g>
<g>
</g>
<g>
</g>
<g>
</g>
<g>
</g>
<g>
</g>
<g>
</g>
<g>
</g>
<g>
</g>
<g>
</g>
<g>
</g>
<g>
</g>
<g>
</g>
</svg>
